<?xml version="1.0" encoding="UTF-8" standalone="no"?>
<!DOCTYPE svg PUBLIC "-//W3C//DTD SVG 1.1//EN"
 "http://www.w3.org/Graphics/SVG/1.1/DTD/svg11.dtd">
<!-- Generated by graphviz version 2.44.0 (20200408.0750)
 -->
<!-- Title: 7efda28012e0 Pages: 1 -->
<svg width="346pt" height="1288pt"
 viewBox="0.00 0.00 345.89 1288.19" xmlns="http://www.w3.org/2000/svg" xmlns:xlink="http://www.w3.org/1999/xlink">
<g id="graph0" class="graph" transform="scale(1 1) rotate(0) translate(4 1284.19)">
<title>7efda28012e0</title>
<polygon fill="white" stroke="transparent" points="-4,4 -4,-1284.19 341.89,-1284.19 341.89,4 -4,4"/>
<!-- ac8db80aead9c5167012e9db801216b14a9017f3d10212a86fb1f1cc0d6f7a57 -->
<g id="node1" class="node">
<title>ac8db80aead9c5167012e9db801216b14a9017f3d10212a86fb1f1cc0d6f7a57</title>
<polygon fill="white" stroke="black" points="217.49,-936.99 190.49,-918.99 217.49,-900.99 244.49,-918.99 217.49,-936.99"/>
<text text-anchor="middle" x="217.49" y="-915.29" font-family="Times,serif" font-size="14.00">+</text>
</g>
<!-- 5bca0639e863fbd04e43b477ce15822b014920e18450f014fb89ff16e3224963 -->
<g id="node2" class="node">
<title>5bca0639e863fbd04e43b477ce15822b014920e18450f014fb89ff16e3224963</title>
<polygon fill="white" stroke="black" points="170.49,-864.99 143.49,-846.99 170.49,-828.99 197.49,-846.99 170.49,-864.99"/>
<text text-anchor="middle" x="170.49" y="-843.29" font-family="Times,serif" font-size="14.00">×</text>
</g>
<!-- ac8db80aead9c5167012e9db801216b14a9017f3d10212a86fb1f1cc0d6f7a57&#45;&gt;5bca0639e863fbd04e43b477ce15822b014920e18450f014fb89ff16e3224963 -->
<g id="edge1" class="edge">
<title>ac8db80aead9c5167012e9db801216b14a9017f3d10212a86fb1f1cc0d6f7a57&#45;&gt;5bca0639e863fbd04e43b477ce15822b014920e18450f014fb89ff16e3224963</title>
<path fill="none" stroke="black" d="M209.52,-906.12C202.68,-895.92 192.65,-880.99 184.47,-868.81"/>
<polygon fill="black" stroke="black" points="187.14,-866.51 178.66,-860.16 181.33,-870.42 187.14,-866.51"/>
</g>
<!-- 2e12aa82c57631b57441059237752cfd3d5f3445c0cff4c742c4a5a5f80c9bf8 -->
<g id="node6" class="node">
<title>2e12aa82c57631b57441059237752cfd3d5f3445c0cff4c742c4a5a5f80c9bf8</title>
<polygon fill="white" stroke="black" points="239.49,-648.99 212.49,-630.99 239.49,-612.99 266.49,-630.99 239.49,-648.99"/>
<text text-anchor="middle" x="239.49" y="-627.29" font-family="Times,serif" font-size="14.00">×</text>
</g>
<!-- ac8db80aead9c5167012e9db801216b14a9017f3d10212a86fb1f1cc0d6f7a57&#45;&gt;2e12aa82c57631b57441059237752cfd3d5f3445c0cff4c742c4a5a5f80c9bf8 -->
<g id="edge21" class="edge">
<title>ac8db80aead9c5167012e9db801216b14a9017f3d10212a86fb1f1cc0d6f7a57&#45;&gt;2e12aa82c57631b57441059237752cfd3d5f3445c0cff4c742c4a5a5f80c9bf8</title>
<path fill="none" stroke="black" d="M218.74,-901.8C222.37,-854.62 232.96,-716.95 237.45,-658.61"/>
<polygon fill="black" stroke="black" points="240.96,-658.61 238.24,-648.37 233.98,-658.07 240.96,-658.61"/>
</g>
<!-- B50982db242b9a02dcc142487c55b6ab7 -->
<g id="node14" class="node">
<title>B50982db242b9a02dcc142487c55b6ab7</title>
<ellipse fill="white" stroke="black" cx="129.49" cy="-774.99" rx="27" ry="18"/>
<text text-anchor="middle" x="129.49" y="-771.29" font-family="Times,serif" font-size="14.00">B</text>
</g>
<!-- 5bca0639e863fbd04e43b477ce15822b014920e18450f014fb89ff16e3224963&#45;&gt;B50982db242b9a02dcc142487c55b6ab7 -->
<g id="edge20" class="edge">
<title>5bca0639e863fbd04e43b477ce15822b014920e18450f014fb89ff16e3224963&#45;&gt;B50982db242b9a02dcc142487c55b6ab7</title>
<path fill="none" stroke="black" d="M163.16,-833.48C157.87,-824.45 150.55,-811.95 144.09,-800.91"/>
<polygon fill="black" stroke="black" points="147,-798.96 138.93,-792.1 140.96,-802.49 147,-798.96"/>
</g>
<!-- 62f8de54bb78f501ba351fdef493b5515e5a06d59eceb39a678db43f5edb7e6c -->
<g id="node3" class="node">
<title>62f8de54bb78f501ba351fdef493b5515e5a06d59eceb39a678db43f5edb7e6c</title>
<polygon fill="white" stroke="black" points="129.49,-720.99 102.49,-702.99 129.49,-684.99 156.49,-702.99 129.49,-720.99"/>
<text text-anchor="middle" x="129.49" y="-699.29" font-family="Times,serif" font-size="14.00">×</text>
</g>
<!-- 69d2ee7ef96cd88bf07ddab9b66430981823f683c77ea9100879eb1106afe902 -->
<g id="node4" class="node">
<title>69d2ee7ef96cd88bf07ddab9b66430981823f683c77ea9100879eb1106afe902</title>
<polygon fill="white" stroke="black" points="119.49,-288.99 92.49,-270.99 119.49,-252.99 146.49,-270.99 119.49,-288.99"/>
<text text-anchor="middle" x="119.49" y="-267.29" font-family="Times,serif" font-size="14.00">×</text>
</g>
<!-- 62f8de54bb78f501ba351fdef493b5515e5a06d59eceb39a678db43f5edb7e6c&#45;&gt;69d2ee7ef96cd88bf07ddab9b66430981823f683c77ea9100879eb1106afe902 -->
<g id="edge2" class="edge">
<title>62f8de54bb78f501ba351fdef493b5515e5a06d59eceb39a678db43f5edb7e6c&#45;&gt;69d2ee7ef96cd88bf07ddab9b66430981823f683c77ea9100879eb1106afe902</title>
<path fill="none" stroke="black" d="M123.55,-688.59C113.09,-663.75 92.49,-608.65 92.49,-559.99 92.49,-559.99 92.49,-559.99 92.49,-413.99 92.49,-371.94 104.07,-324.09 112.06,-296.06"/>
<polygon fill="black" stroke="black" points="115.45,-296.92 114.91,-286.34 108.74,-294.94 115.45,-296.92"/>
</g>
<!-- 62f8de54bb78f501ba351fdef493b5515e5a06d59eceb39a678db43f5edb7e6c&#45;&gt;2e12aa82c57631b57441059237752cfd3d5f3445c0cff4c742c4a5a5f80c9bf8 -->
<g id="edge22" class="edge">
<title>62f8de54bb78f501ba351fdef493b5515e5a06d59eceb39a678db43f5edb7e6c&#45;&gt;2e12aa82c57631b57441059237752cfd3d5f3445c0cff4c742c4a5a5f80c9bf8</title>
<path fill="none" stroke="black" d="M142.55,-693.69C161.05,-681.91 195.16,-660.21 217.59,-645.94"/>
<polygon fill="black" stroke="black" points="219.56,-648.83 226.12,-640.51 215.8,-642.92 219.56,-648.83"/>
</g>
<!-- 52eedee7ab98f89d6333eb5b07c16c9ee064f25d75f26a8c9e3a7993c0a04ab4 -->
<g id="node16" class="node">
<title>52eedee7ab98f89d6333eb5b07c16c9ee064f25d75f26a8c9e3a7993c0a04ab4</title>
<polygon fill="white" stroke="black" points="147.49,-432.99 120.49,-414.99 147.49,-396.99 174.49,-414.99 147.49,-432.99"/>
<text text-anchor="middle" x="147.49" y="-411.29" font-family="Times,serif" font-size="14.00">+</text>
</g>
<!-- 62f8de54bb78f501ba351fdef493b5515e5a06d59eceb39a678db43f5edb7e6c&#45;&gt;52eedee7ab98f89d6333eb5b07c16c9ee064f25d75f26a8c9e3a7993c0a04ab4 -->
<g id="edge25" class="edge">
<title>62f8de54bb78f501ba351fdef493b5515e5a06d59eceb39a678db43f5edb7e6c&#45;&gt;52eedee7ab98f89d6333eb5b07c16c9ee064f25d75f26a8c9e3a7993c0a04ab4</title>
<path fill="none" stroke="black" d="M130.54,-685.38C133.53,-637.89 142.13,-501.25 145.8,-442.91"/>
<polygon fill="black" stroke="black" points="149.31,-442.85 146.45,-432.65 142.33,-442.41 149.31,-442.85"/>
</g>
<!-- Stuffaftere4818259daf8ff259836621a995d05af -->
<g id="node7" class="node">
<title>Stuffaftere4818259daf8ff259836621a995d05af</title>
<ellipse fill="white" stroke="black" cx="58.49" cy="-198.99" rx="58.49" ry="18"/>
<text text-anchor="middle" x="58.49" y="-195.29" font-family="Times,serif" font-size="14.00">Stuff after</text>
</g>
<!-- 69d2ee7ef96cd88bf07ddab9b66430981823f683c77ea9100879eb1106afe902&#45;&gt;Stuffaftere4818259daf8ff259836621a995d05af -->
<g id="edge5" class="edge">
<title>69d2ee7ef96cd88bf07ddab9b66430981823f683c77ea9100879eb1106afe902&#45;&gt;Stuffaftere4818259daf8ff259836621a995d05af</title>
<path fill="none" stroke="black" d="M109.96,-259.06C101.9,-249.81 90.06,-236.22 79.77,-224.4"/>
<polygon fill="black" stroke="black" points="82.16,-221.82 72.95,-216.58 76.88,-226.42 82.16,-221.82"/>
</g>
<!-- 9be04686af6b5eae1f90ede0fd9a15b4858442044d4e711a960cdb6e75ce42c1 -->
<g id="node5" class="node">
<title>9be04686af6b5eae1f90ede0fd9a15b4858442044d4e711a960cdb6e75ce42c1</title>
<polygon fill="white" stroke="black" points="217.49,-1008.99 190.49,-990.99 217.49,-972.99 244.49,-990.99 217.49,-1008.99"/>
<text text-anchor="middle" x="217.49" y="-987.29" font-family="Times,serif" font-size="14.00">×</text>
</g>
<!-- 9be04686af6b5eae1f90ede0fd9a15b4858442044d4e711a960cdb6e75ce42c1&#45;&gt;ac8db80aead9c5167012e9db801216b14a9017f3d10212a86fb1f1cc0d6f7a57 -->
<g id="edge12" class="edge">
<title>9be04686af6b5eae1f90ede0fd9a15b4858442044d4e711a960cdb6e75ce42c1&#45;&gt;ac8db80aead9c5167012e9db801216b14a9017f3d10212a86fb1f1cc0d6f7a57</title>
<path fill="none" stroke="black" d="M217.49,-972.69C217.49,-964.98 217.49,-955.71 217.49,-947.11"/>
<polygon fill="black" stroke="black" points="220.99,-947.1 217.49,-937.1 213.99,-947.1 220.99,-947.1"/>
</g>
<!-- 9be04686af6b5eae1f90ede0fd9a15b4858442044d4e711a960cdb6e75ce42c1&#45;&gt;5bca0639e863fbd04e43b477ce15822b014920e18450f014fb89ff16e3224963 -->
<g id="edge4" class="edge">
<title>9be04686af6b5eae1f90ede0fd9a15b4858442044d4e711a960cdb6e75ce42c1&#45;&gt;5bca0639e863fbd04e43b477ce15822b014920e18450f014fb89ff16e3224963</title>
<path fill="none" stroke="black" d="M207.78,-979.09C199.33,-968.95 187.53,-953.03 181.49,-936.99 174.01,-917.11 171.38,-893.14 170.56,-875.08"/>
<polygon fill="black" stroke="black" points="174.05,-874.85 170.25,-864.96 167.05,-875.06 174.05,-874.85"/>
</g>
<!-- 9be04686af6b5eae1f90ede0fd9a15b4858442044d4e711a960cdb6e75ce42c1&#45;&gt;2e12aa82c57631b57441059237752cfd3d5f3445c0cff4c742c4a5a5f80c9bf8 -->
<g id="edge3" class="edge">
<title>9be04686af6b5eae1f90ede0fd9a15b4858442044d4e711a960cdb6e75ce42c1&#45;&gt;2e12aa82c57631b57441059237752cfd3d5f3445c0cff4c742c4a5a5f80c9bf8</title>
<path fill="none" stroke="black" d="M226.88,-978.96C235.11,-968.73 246.77,-952.75 253.49,-936.99 269.38,-899.8 272.49,-888.44 272.49,-847.99 272.49,-847.99 272.49,-847.99 272.49,-773.99 272.49,-731.35 258.2,-683.34 248.43,-655.49"/>
<polygon fill="black" stroke="black" points="251.64,-654.07 244.94,-645.85 245.06,-656.45 251.64,-654.07"/>
</g>
<!-- Ad4b08f8faeb6f5c16b27d3c870a8efe1 -->
<g id="node17" class="node">
<title>Ad4b08f8faeb6f5c16b27d3c870a8efe1</title>
<ellipse fill="white" stroke="black" cx="239.49" cy="-558.99" rx="27" ry="18"/>
<text text-anchor="middle" x="239.49" y="-555.29" font-family="Times,serif" font-size="14.00">A</text>
</g>
<!-- 2e12aa82c57631b57441059237752cfd3d5f3445c0cff4c742c4a5a5f80c9bf8&#45;&gt;Ad4b08f8faeb6f5c16b27d3c870a8efe1 -->
<g id="edge17" class="edge">
<title>2e12aa82c57631b57441059237752cfd3d5f3445c0cff4c742c4a5a5f80c9bf8&#45;&gt;Ad4b08f8faeb6f5c16b27d3c870a8efe1</title>
<path fill="none" stroke="black" d="M239.49,-612.69C239.49,-604.98 239.49,-595.71 239.49,-587.11"/>
<polygon fill="black" stroke="black" points="242.99,-587.1 239.49,-577.1 235.99,-587.1 242.99,-587.1"/>
</g>
<!-- 95b38dbbd19111be79912f16c1f4c2b3b337193f55455bef5060270787508f87 -->
<g id="node12" class="node">
<title>95b38dbbd19111be79912f16c1f4c2b3b337193f55455bef5060270787508f87</title>
<polygon fill="white" stroke="black" points="147.49,-144.99 120.49,-126.99 147.49,-108.99 174.49,-126.99 147.49,-144.99"/>
<text text-anchor="middle" x="147.49" y="-123.29" font-family="Times,serif" font-size="14.00">×</text>
</g>
<!-- Stuffaftere4818259daf8ff259836621a995d05af&#45;&gt;95b38dbbd19111be79912f16c1f4c2b3b337193f55455bef5060270787508f87 -->
<g id="edge11" class="edge">
<title>Stuffaftere4818259daf8ff259836621a995d05af&#45;&gt;95b38dbbd19111be79912f16c1f4c2b3b337193f55455bef5060270787508f87</title>
<path fill="none" stroke="black" d="M79.14,-181.76C93.68,-170.32 113.05,-155.09 127.46,-143.75"/>
<polygon fill="black" stroke="black" points="130,-146.2 135.7,-137.27 125.68,-140.7 130,-146.2"/>
</g>
<!-- f773385a89f2a3dc8304254b5449a3a977eb0235616f41aa60285f76f3aeb9b1 -->
<g id="node8" class="node">
<title>f773385a89f2a3dc8304254b5449a3a977eb0235616f41aa60285f76f3aeb9b1</title>
<polygon fill="white" stroke="black" points="147.49,-360.99 120.49,-342.99 147.49,-324.99 174.49,-342.99 147.49,-360.99"/>
<text text-anchor="middle" x="147.49" y="-339.29" font-family="Times,serif" font-size="14.00">×</text>
</g>
<!-- f773385a89f2a3dc8304254b5449a3a977eb0235616f41aa60285f76f3aeb9b1&#45;&gt;69d2ee7ef96cd88bf07ddab9b66430981823f683c77ea9100879eb1106afe902 -->
<g id="edge7" class="edge">
<title>f773385a89f2a3dc8304254b5449a3a977eb0235616f41aa60285f76f3aeb9b1&#45;&gt;69d2ee7ef96cd88bf07ddab9b66430981823f683c77ea9100879eb1106afe902</title>
<path fill="none" stroke="black" d="M142.1,-328.5C138.3,-319.01 133.13,-306.07 128.69,-294.97"/>
<polygon fill="black" stroke="black" points="131.84,-293.43 124.88,-285.45 125.34,-296.03 131.84,-293.43"/>
</g>
<!-- Differentstuffafter1708f762a83509bfc1caa96a1dde8670 -->
<g id="node9" class="node">
<title>Differentstuffafter1708f762a83509bfc1caa96a1dde8670</title>
<ellipse fill="white" stroke="black" cx="236.49" cy="-198.99" rx="101.28" ry="18"/>
<text text-anchor="middle" x="236.49" y="-195.29" font-family="Times,serif" font-size="14.00">Different stuff after</text>
</g>
<!-- f773385a89f2a3dc8304254b5449a3a977eb0235616f41aa60285f76f3aeb9b1&#45;&gt;Differentstuffafter1708f762a83509bfc1caa96a1dde8670 -->
<g id="edge6" class="edge">
<title>f773385a89f2a3dc8304254b5449a3a977eb0235616f41aa60285f76f3aeb9b1&#45;&gt;Differentstuffafter1708f762a83509bfc1caa96a1dde8670</title>
<path fill="none" stroke="black" d="M155.08,-329.89C169.47,-306.93 200.99,-256.63 220.32,-225.8"/>
<polygon fill="black" stroke="black" points="223.31,-227.61 225.66,-217.28 217.38,-223.9 223.31,-227.61"/>
</g>
<!-- Differentstuffafter1708f762a83509bfc1caa96a1dde8670&#45;&gt;95b38dbbd19111be79912f16c1f4c2b3b337193f55455bef5060270787508f87 -->
<g id="edge9" class="edge">
<title>Differentstuffafter1708f762a83509bfc1caa96a1dde8670&#45;&gt;95b38dbbd19111be79912f16c1f4c2b3b337193f55455bef5060270787508f87</title>
<path fill="none" stroke="black" d="M214.95,-181.05C200.47,-169.66 181.51,-154.75 167.39,-143.64"/>
<polygon fill="black" stroke="black" points="169.32,-140.71 159.3,-137.28 164.99,-146.21 169.32,-140.71"/>
</g>
<!-- Stuffbefored323bf0350e84b3ed39eda6135205f4a -->
<g id="node10" class="node">
<title>Stuffbefored323bf0350e84b3ed39eda6135205f4a</title>
<ellipse fill="white" stroke="black" cx="217.49" cy="-1134.99" rx="65.79" ry="18"/>
<text text-anchor="middle" x="217.49" y="-1131.29" font-family="Times,serif" font-size="14.00">Stuff before</text>
</g>
<!-- Otherstuffbefore56e2ad048b6ab36070c18ffc68875a40 -->
<g id="node11" class="node">
<title>Otherstuffbefore56e2ad048b6ab36070c18ffc68875a40</title>
<ellipse fill="white" stroke="black" cx="217.49" cy="-1062.99" rx="94.48" ry="18"/>
<text text-anchor="middle" x="217.49" y="-1059.29" font-family="Times,serif" font-size="14.00">Other stuff before</text>
</g>
<!-- Stuffbefored323bf0350e84b3ed39eda6135205f4a&#45;&gt;Otherstuffbefore56e2ad048b6ab36070c18ffc68875a40 -->
<g id="edge8" class="edge">
<title>Stuffbefored323bf0350e84b3ed39eda6135205f4a&#45;&gt;Otherstuffbefore56e2ad048b6ab36070c18ffc68875a40</title>
<path fill="none" stroke="black" d="M217.49,-1116.69C217.49,-1108.98 217.49,-1099.71 217.49,-1091.11"/>
<polygon fill="black" stroke="black" points="220.99,-1091.1 217.49,-1081.1 213.99,-1091.1 220.99,-1091.1"/>
</g>
<!-- Otherstuffbefore56e2ad048b6ab36070c18ffc68875a40&#45;&gt;9be04686af6b5eae1f90ede0fd9a15b4858442044d4e711a960cdb6e75ce42c1 -->
<g id="edge24" class="edge">
<title>Otherstuffbefore56e2ad048b6ab36070c18ffc68875a40&#45;&gt;9be04686af6b5eae1f90ede0fd9a15b4858442044d4e711a960cdb6e75ce42c1</title>
<path fill="none" stroke="black" d="M217.49,-1044.69C217.49,-1036.98 217.49,-1027.71 217.49,-1019.11"/>
<polygon fill="black" stroke="black" points="220.99,-1019.1 217.49,-1009.1 213.99,-1019.1 220.99,-1019.1"/>
</g>
<!-- ENDace30ee1e2a05c82c229c3e66f6f64c7 -->
<g id="node15" class="node">
<title>ENDace30ee1e2a05c82c229c3e66f6f64c7</title>
<ellipse fill="white" stroke="black" cx="147.49" cy="-36.5" rx="32.49" ry="32.49"/>
<ellipse fill="none" stroke="black" cx="147.49" cy="-36.5" rx="36.49" ry="36.49"/>
<text text-anchor="middle" x="147.49" y="-32.8" font-family="Times,serif" font-size="14.00">END</text>
</g>
<!-- 95b38dbbd19111be79912f16c1f4c2b3b337193f55455bef5060270787508f87&#45;&gt;ENDace30ee1e2a05c82c229c3e66f6f64c7 -->
<g id="edge14" class="edge">
<title>95b38dbbd19111be79912f16c1f4c2b3b337193f55455bef5060270787508f87&#45;&gt;ENDace30ee1e2a05c82c229c3e66f6f64c7</title>
<path fill="none" stroke="black" d="M147.49,-108.93C147.49,-101.56 147.49,-92.54 147.49,-83.43"/>
<polygon fill="black" stroke="black" points="150.99,-83.19 147.49,-73.19 143.99,-83.19 150.99,-83.19"/>
</g>
<!-- 24af93c75ad6d23191a6b4eece2bd15a0bc2809df8bb54b22f7c9f3d3f19f972 -->
<g id="node13" class="node">
<title>24af93c75ad6d23191a6b4eece2bd15a0bc2809df8bb54b22f7c9f3d3f19f972</title>
<polygon fill="white" stroke="black" points="197.49,-504.99 170.49,-486.99 197.49,-468.99 224.49,-486.99 197.49,-504.99"/>
<text text-anchor="middle" x="197.49" y="-483.29" font-family="Times,serif" font-size="14.00">×</text>
</g>
<!-- 24af93c75ad6d23191a6b4eece2bd15a0bc2809df8bb54b22f7c9f3d3f19f972&#45;&gt;5bca0639e863fbd04e43b477ce15822b014920e18450f014fb89ff16e3224963 -->
<g id="edge16" class="edge">
<title>24af93c75ad6d23191a6b4eece2bd15a0bc2809df8bb54b22f7c9f3d3f19f972&#45;&gt;5bca0639e863fbd04e43b477ce15822b014920e18450f014fb89ff16e3224963</title>
<path fill="none" stroke="black" d="M195.11,-503.71C191.36,-529.85 184.49,-583.95 184.49,-629.99 184.49,-703.99 184.49,-703.99 184.49,-703.99 184.49,-744.85 178.68,-792 174.55,-820.38"/>
<polygon fill="black" stroke="black" points="171.09,-819.88 173.06,-830.28 178.01,-820.91 171.09,-819.88"/>
</g>
<!-- 24af93c75ad6d23191a6b4eece2bd15a0bc2809df8bb54b22f7c9f3d3f19f972&#45;&gt;69d2ee7ef96cd88bf07ddab9b66430981823f683c77ea9100879eb1106afe902 -->
<g id="edge10" class="edge">
<title>24af93c75ad6d23191a6b4eece2bd15a0bc2809df8bb54b22f7c9f3d3f19f972&#45;&gt;69d2ee7ef96cd88bf07ddab9b66430981823f683c77ea9100879eb1106afe902</title>
<path fill="none" stroke="black" d="M199.94,-470.25C203.83,-440.11 208.64,-372.95 183.49,-324.99 174.48,-307.81 157.27,-294.05 142.96,-284.86"/>
<polygon fill="black" stroke="black" points="144.46,-281.68 134.09,-279.49 140.84,-287.66 144.46,-281.68"/>
</g>
<!-- 24af93c75ad6d23191a6b4eece2bd15a0bc2809df8bb54b22f7c9f3d3f19f972&#45;&gt;52eedee7ab98f89d6333eb5b07c16c9ee064f25d75f26a8c9e3a7993c0a04ab4 -->
<g id="edge15" class="edge">
<title>24af93c75ad6d23191a6b4eece2bd15a0bc2809df8bb54b22f7c9f3d3f19f972&#45;&gt;52eedee7ab98f89d6333eb5b07c16c9ee064f25d75f26a8c9e3a7993c0a04ab4</title>
<path fill="none" stroke="black" d="M189.24,-474.44C181.83,-464.06 170.79,-448.6 161.92,-436.19"/>
<polygon fill="black" stroke="black" points="164.59,-433.91 155.93,-427.8 158.9,-437.98 164.59,-433.91"/>
</g>
<!-- B50982db242b9a02dcc142487c55b6ab7&#45;&gt;62f8de54bb78f501ba351fdef493b5515e5a06d59eceb39a678db43f5edb7e6c -->
<g id="edge13" class="edge">
<title>B50982db242b9a02dcc142487c55b6ab7&#45;&gt;62f8de54bb78f501ba351fdef493b5515e5a06d59eceb39a678db43f5edb7e6c</title>
<path fill="none" stroke="black" d="M129.49,-756.69C129.49,-748.98 129.49,-739.71 129.49,-731.11"/>
<polygon fill="black" stroke="black" points="132.99,-731.1 129.49,-721.1 125.99,-731.1 132.99,-731.1"/>
</g>
<!-- 52eedee7ab98f89d6333eb5b07c16c9ee064f25d75f26a8c9e3a7993c0a04ab4&#45;&gt;f773385a89f2a3dc8304254b5449a3a977eb0235616f41aa60285f76f3aeb9b1 -->
<g id="edge18" class="edge">
<title>52eedee7ab98f89d6333eb5b07c16c9ee064f25d75f26a8c9e3a7993c0a04ab4&#45;&gt;f773385a89f2a3dc8304254b5449a3a977eb0235616f41aa60285f76f3aeb9b1</title>
<path fill="none" stroke="black" d="M147.49,-396.69C147.49,-388.98 147.49,-379.71 147.49,-371.11"/>
<polygon fill="black" stroke="black" points="150.99,-371.1 147.49,-361.1 143.99,-371.1 150.99,-371.1"/>
</g>
<!-- Ad4b08f8faeb6f5c16b27d3c870a8efe1&#45;&gt;24af93c75ad6d23191a6b4eece2bd15a0bc2809df8bb54b22f7c9f3d3f19f972 -->
<g id="edge23" class="edge">
<title>Ad4b08f8faeb6f5c16b27d3c870a8efe1&#45;&gt;24af93c75ad6d23191a6b4eece2bd15a0bc2809df8bb54b22f7c9f3d3f19f972</title>
<path fill="none" stroke="black" d="M229.96,-542.11C224.12,-532.38 216.58,-519.8 210.23,-509.22"/>
<polygon fill="black" stroke="black" points="213.18,-507.33 205.03,-500.55 207.17,-510.93 213.18,-507.33"/>
</g>
<!-- START960df667d174bfaadf090666e0c2cc69 -->
<g id="node18" class="node">
<title>START960df667d174bfaadf090666e0c2cc69</title>
<ellipse fill="white" stroke="black" cx="217.49" cy="-1234.59" rx="41.68" ry="41.68"/>
<ellipse fill="none" stroke="black" cx="217.49" cy="-1234.59" rx="45.69" ry="45.69"/>
<text text-anchor="middle" x="217.49" y="-1230.89" font-family="Times,serif" font-size="14.00">START</text>
</g>
<!-- START960df667d174bfaadf090666e0c2cc69&#45;&gt;Stuffbefored323bf0350e84b3ed39eda6135205f4a -->
<g id="edge19" class="edge">
<title>START960df667d174bfaadf090666e0c2cc69&#45;&gt;Stuffbefored323bf0350e84b3ed39eda6135205f4a</title>
<path fill="none" stroke="black" d="M217.49,-1188.79C217.49,-1180.11 217.49,-1171.26 217.49,-1163.35"/>
<polygon fill="black" stroke="black" points="220.99,-1163.24 217.49,-1153.24 213.99,-1163.24 220.99,-1163.24"/>
</g>
</g>
</svg>
