<?xml version="1.0" encoding="UTF-8" standalone="no"?>
<!DOCTYPE svg PUBLIC "-//W3C//DTD SVG 1.1//EN"
 "http://www.w3.org/Graphics/SVG/1.1/DTD/svg11.dtd">
<!-- Generated by graphviz version 2.44.0 (20200408.0750)
 -->
<!-- Title: 7f72ddf605b0 Pages: 1 -->
<svg width="661pt" height="476pt"
 viewBox="0.00 0.00 661.05 476.00" xmlns="http://www.w3.org/2000/svg" xmlns:xlink="http://www.w3.org/1999/xlink">
<g id="graph0" class="graph" transform="scale(1 1) rotate(0) translate(4 472)">
<title>7f72ddf605b0</title>
<polygon fill="white" stroke="transparent" points="-4,4 -4,-472 657.05,-472 657.05,4 -4,4"/>
<!-- Collecteinfos247180c821381881d9666effcce33fc3 -->
<g id="node1" class="node">
<title>Collecteinfos247180c821381881d9666effcce33fc3</title>
<ellipse fill="none" stroke="black" cx="400.05" cy="-234" rx="73.39" ry="18"/>
<text text-anchor="middle" x="400.05" y="-230.3" font-family="Times,serif" font-size="14.00">Collecte infos</text>
</g>
<!-- Collecteinfos247180c821381881d9666effcce33fc3&#45;&gt;Collecteinfos247180c821381881d9666effcce33fc3 -->
<g id="edge17" class="edge">
<title>Collecteinfos247180c821381881d9666effcce33fc3&#45;&gt;Collecteinfos247180c821381881d9666effcce33fc3</title>
<path fill="none" stroke="black" d="M449.9,-247.29C472.2,-248.55 491.49,-244.12 491.49,-234 491.49,-225.46 477.76,-220.97 460.07,-220.53"/>
<polygon fill="black" stroke="black" points="459.84,-217.04 449.9,-220.71 459.96,-224.04 459.84,-217.04"/>
</g>
<!-- Refuse4e1e80d7f9c4446f9e35b956612c85b -->
<g id="node2" class="node">
<title>Refuse4e1e80d7f9c4446f9e35b956612c85b</title>
<ellipse fill="none" stroke="black" cx="37.05" cy="-90" rx="37.09" ry="18"/>
<text text-anchor="middle" x="37.05" y="-86.3" font-family="Times,serif" font-size="14.00">Refus</text>
</g>
<!-- Collecteinfos247180c821381881d9666effcce33fc3&#45;&gt;Refuse4e1e80d7f9c4446f9e35b956612c85b -->
<g id="edge1" class="edge">
<title>Collecteinfos247180c821381881d9666effcce33fc3&#45;&gt;Refuse4e1e80d7f9c4446f9e35b956612c85b</title>
<path fill="none" stroke="black" d="M326.77,-232.24C266.63,-228.71 181.1,-216.79 116.05,-180 88.95,-164.67 66.38,-136.55 52.39,-116.01"/>
<polygon fill="black" stroke="black" points="55.18,-113.88 46.76,-107.45 49.34,-117.73 55.18,-113.88"/>
</g>
<!-- Contrôlecréditb98d9ff7f1901e0ea125c186d9035d8f -->
<g id="node3" class="node">
<title>Contrôlecréditb98d9ff7f1901e0ea125c186d9035d8f</title>
<ellipse fill="none" stroke="black" cx="206.05" cy="-162" rx="81.49" ry="18"/>
<text text-anchor="middle" x="206.05" y="-158.3" font-family="Times,serif" font-size="14.00">Contrôle crédit</text>
</g>
<!-- Collecteinfos247180c821381881d9666effcce33fc3&#45;&gt;Contrôlecréditb98d9ff7f1901e0ea125c186d9035d8f -->
<g id="edge13" class="edge">
<title>Collecteinfos247180c821381881d9666effcce33fc3&#45;&gt;Contrôlecréditb98d9ff7f1901e0ea125c186d9035d8f</title>
<path fill="none" stroke="black" d="M360.32,-218.67C330.28,-207.83 288.83,-192.87 256.45,-181.19"/>
<polygon fill="black" stroke="black" points="257.32,-177.78 246.72,-177.68 254.94,-184.36 257.32,-177.78"/>
</g>
<!-- Contrôledesinfosb77355e012bafef455c42a1053116185 -->
<g id="node9" class="node">
<title>Contrôledesinfosb77355e012bafef455c42a1053116185</title>
<ellipse fill="none" stroke="black" cx="400.05" cy="-162" rx="94.78" ry="18"/>
<text text-anchor="middle" x="400.05" y="-158.3" font-family="Times,serif" font-size="14.00">Contrôle des infos</text>
</g>
<!-- Collecteinfos247180c821381881d9666effcce33fc3&#45;&gt;Contrôledesinfosb77355e012bafef455c42a1053116185 -->
<g id="edge9" class="edge">
<title>Collecteinfos247180c821381881d9666effcce33fc3&#45;&gt;Contrôledesinfosb77355e012bafef455c42a1053116185</title>
<path fill="none" stroke="black" d="M394.17,-216.05C393.35,-208.35 393.11,-199.03 393.44,-190.36"/>
<polygon fill="black" stroke="black" points="396.94,-190.49 394.13,-180.28 389.96,-190.01 396.94,-190.49"/>
</g>
<!-- ENDace30ee1e2a05c82c229c3e66f6f64c7 -->
<g id="node4" class="node">
<title>ENDace30ee1e2a05c82c229c3e66f6f64c7</title>
<ellipse fill="none" stroke="black" cx="102.05" cy="-18" rx="32.49" ry="18"/>
<text text-anchor="middle" x="102.05" y="-14.3" font-family="Times,serif" font-size="14.00">END</text>
</g>
<!-- Refuse4e1e80d7f9c4446f9e35b956612c85b&#45;&gt;ENDace30ee1e2a05c82c229c3e66f6f64c7 -->
<g id="edge7" class="edge">
<title>Refuse4e1e80d7f9c4446f9e35b956612c85b&#45;&gt;ENDace30ee1e2a05c82c229c3e66f6f64c7</title>
<path fill="none" stroke="black" d="M51.8,-73.12C60.39,-63.86 71.38,-52.03 80.89,-41.79"/>
<polygon fill="black" stroke="black" points="83.56,-44.05 87.8,-34.34 78.43,-39.29 83.56,-44.05"/>
</g>
<!-- Contrôlecréditb98d9ff7f1901e0ea125c186d9035d8f&#45;&gt;ENDace30ee1e2a05c82c229c3e66f6f64c7 -->
<g id="edge2" class="edge">
<title>Contrôlecréditb98d9ff7f1901e0ea125c186d9035d8f&#45;&gt;ENDace30ee1e2a05c82c229c3e66f6f64c7</title>
<path fill="none" stroke="black" d="M168.42,-145.82C151.49,-137.16 132.73,-124.66 121.05,-108 108.4,-89.97 103.89,-65.18 102.41,-46.34"/>
<polygon fill="black" stroke="black" points="105.9,-46.1 101.86,-36.3 98.91,-46.48 105.9,-46.1"/>
</g>
<!-- Examenexigences4dd9712baf170e138e74a0b0893d29ee -->
<g id="node8" class="node">
<title>Examenexigences4dd9712baf170e138e74a0b0893d29ee</title>
<ellipse fill="none" stroke="black" cx="227.05" cy="-90" rx="96.68" ry="18"/>
<text text-anchor="middle" x="227.05" y="-86.3" font-family="Times,serif" font-size="14.00">Examen exigences</text>
</g>
<!-- Contrôlecréditb98d9ff7f1901e0ea125c186d9035d8f&#45;&gt;Examenexigences4dd9712baf170e138e74a0b0893d29ee -->
<g id="edge6" class="edge">
<title>Contrôlecréditb98d9ff7f1901e0ea125c186d9035d8f&#45;&gt;Examenexigences4dd9712baf170e138e74a0b0893d29ee</title>
<path fill="none" stroke="black" d="M205.32,-143.7C206.87,-135.81 209.51,-126.3 212.51,-117.55"/>
<polygon fill="black" stroke="black" points="215.82,-118.7 216.02,-108.1 209.26,-116.26 215.82,-118.7"/>
</g>
<!-- Demandeclient3b7f30a9759b12989eeebba9116d99f6 -->
<g id="node5" class="node">
<title>Demandeclient3b7f30a9759b12989eeebba9116d99f6</title>
<ellipse fill="none" stroke="black" cx="499.05" cy="-378" rx="83.39" ry="18"/>
<text text-anchor="middle" x="499.05" y="-374.3" font-family="Times,serif" font-size="14.00">Demande client</text>
</g>
<!-- Demandeclient3b7f30a9759b12989eeebba9116d99f6&#45;&gt;Demandeclient3b7f30a9759b12989eeebba9116d99f6 -->
<g id="edge3" class="edge">
<title>Demandeclient3b7f30a9759b12989eeebba9116d99f6&#45;&gt;Demandeclient3b7f30a9759b12989eeebba9116d99f6</title>
<path fill="none" stroke="black" d="M554.98,-391.33C579.34,-392.46 600.24,-388.02 600.24,-378 600.24,-369.39 584.8,-364.9 565,-364.53"/>
<polygon fill="black" stroke="black" points="564.93,-361.03 554.98,-364.67 565.03,-368.03 564.93,-361.03"/>
</g>
<!-- Saisieetenregistrementcb0b95ca9bb16c31bd634536eee16714 -->
<g id="node7" class="node">
<title>Saisieetenregistrementcb0b95ca9bb16c31bd634536eee16714</title>
<ellipse fill="none" stroke="black" cx="499.05" cy="-306" rx="126.18" ry="18"/>
<text text-anchor="middle" x="499.05" y="-302.3" font-family="Times,serif" font-size="14.00">Saisie et enregistrement</text>
</g>
<!-- Demandeclient3b7f30a9759b12989eeebba9116d99f6&#45;&gt;Saisieetenregistrementcb0b95ca9bb16c31bd634536eee16714 -->
<g id="edge14" class="edge">
<title>Demandeclient3b7f30a9759b12989eeebba9116d99f6&#45;&gt;Saisieetenregistrementcb0b95ca9bb16c31bd634536eee16714</title>
<path fill="none" stroke="black" d="M499.05,-359.7C499.05,-351.98 499.05,-342.71 499.05,-334.11"/>
<polygon fill="black" stroke="black" points="502.55,-334.1 499.05,-324.1 495.55,-334.1 502.55,-334.1"/>
</g>
<!-- Vérif.solvalibilité8771e60385b8023496e5329cb208bbb5 -->
<g id="node6" class="node">
<title>Vérif.solvalibilité8771e60385b8023496e5329cb208bbb5</title>
<ellipse fill="none" stroke="black" cx="542.05" cy="-90" rx="91.78" ry="18"/>
<text text-anchor="middle" x="542.05" y="-86.3" font-family="Times,serif" font-size="14.00">Vérif. solvalibilité</text>
</g>
<!-- Vérif.solvalibilité8771e60385b8023496e5329cb208bbb5&#45;&gt;Collecteinfos247180c821381881d9666effcce33fc3 -->
<g id="edge20" class="edge">
<title>Vérif.solvalibilité8771e60385b8023496e5329cb208bbb5&#45;&gt;Collecteinfos247180c821381881d9666effcce33fc3</title>
<path fill="none" stroke="black" d="M538.49,-108.01C533.66,-127.49 523.32,-159.38 504.05,-180 489.73,-195.33 469.98,-206.92 451.54,-215.3"/>
<polygon fill="black" stroke="black" points="450.13,-212.1 442.34,-219.28 452.91,-218.52 450.13,-212.1"/>
</g>
<!-- Vérif.solvalibilité8771e60385b8023496e5329cb208bbb5&#45;&gt;Vérif.solvalibilité8771e60385b8023496e5329cb208bbb5 -->
<g id="edge4" class="edge">
<title>Vérif.solvalibilité8771e60385b8023496e5329cb208bbb5&#45;&gt;Vérif.solvalibilité8771e60385b8023496e5329cb208bbb5</title>
<path fill="none" stroke="black" d="M603.49,-103.36C629.51,-104.37 651.69,-99.91 651.69,-90 651.69,-81.4 635.01,-76.91 613.61,-76.53"/>
<polygon fill="black" stroke="black" points="613.45,-73.03 603.49,-76.64 613.52,-80.03 613.45,-73.03"/>
</g>
<!-- Saisieetenregistrementcb0b95ca9bb16c31bd634536eee16714&#45;&gt;Collecteinfos247180c821381881d9666effcce33fc3 -->
<g id="edge5" class="edge">
<title>Saisieetenregistrementcb0b95ca9bb16c31bd634536eee16714&#45;&gt;Collecteinfos247180c821381881d9666effcce33fc3</title>
<path fill="none" stroke="black" d="M475.33,-288.23C462.16,-278.92 445.62,-267.22 431.39,-257.16"/>
<polygon fill="black" stroke="black" points="433.07,-254.06 422.88,-251.15 429.03,-259.78 433.07,-254.06"/>
</g>
<!-- Saisieetenregistrementcb0b95ca9bb16c31bd634536eee16714&#45;&gt;Vérif.solvalibilité8771e60385b8023496e5329cb208bbb5 -->
<g id="edge11" class="edge">
<title>Saisieetenregistrementcb0b95ca9bb16c31bd634536eee16714&#45;&gt;Vérif.solvalibilité8771e60385b8023496e5329cb208bbb5</title>
<path fill="none" stroke="black" d="M503.72,-287.72C510.09,-263.7 521.57,-218.79 529.05,-180 533.01,-159.43 536.39,-135.98 538.71,-118.31"/>
<polygon fill="black" stroke="black" points="542.21,-118.5 540.01,-108.14 535.27,-117.61 542.21,-118.5"/>
</g>
<!-- Examenexigences4dd9712baf170e138e74a0b0893d29ee&#45;&gt;Contrôlecréditb98d9ff7f1901e0ea125c186d9035d8f -->
<g id="edge8" class="edge">
<title>Examenexigences4dd9712baf170e138e74a0b0893d29ee&#45;&gt;Contrôlecréditb98d9ff7f1901e0ea125c186d9035d8f</title>
<path fill="none" stroke="black" d="M227.78,-108.28C226.22,-116.2 223.56,-125.77 220.54,-134.57"/>
<polygon fill="black" stroke="black" points="217.22,-133.46 217.01,-144.05 223.78,-135.91 217.22,-133.46"/>
</g>
<!-- Examenexigences4dd9712baf170e138e74a0b0893d29ee&#45;&gt;ENDace30ee1e2a05c82c229c3e66f6f64c7 -->
<g id="edge19" class="edge">
<title>Examenexigences4dd9712baf170e138e74a0b0893d29ee&#45;&gt;ENDace30ee1e2a05c82c229c3e66f6f64c7</title>
<path fill="none" stroke="black" d="M198.06,-72.76C178.63,-61.89 153.07,-47.57 133.21,-36.45"/>
<polygon fill="black" stroke="black" points="134.69,-33.27 124.25,-31.43 131.27,-39.37 134.69,-33.27"/>
</g>
<!-- Contrôledesinfosb77355e012bafef455c42a1053116185&#45;&gt;Collecteinfos247180c821381881d9666effcce33fc3 -->
<g id="edge18" class="edge">
<title>Contrôledesinfosb77355e012bafef455c42a1053116185&#45;&gt;Collecteinfos247180c821381881d9666effcce33fc3</title>
<path fill="none" stroke="black" d="M405.96,-180.28C406.76,-188.03 406.99,-197.36 406.64,-206.01"/>
<polygon fill="black" stroke="black" points="403.14,-205.83 405.92,-216.05 410.12,-206.33 403.14,-205.83"/>
</g>
<!-- Contrôledesinfosb77355e012bafef455c42a1053116185&#45;&gt;Vérif.solvalibilité8771e60385b8023496e5329cb208bbb5 -->
<g id="edge15" class="edge">
<title>Contrôledesinfosb77355e012bafef455c42a1053116185&#45;&gt;Vérif.solvalibilité8771e60385b8023496e5329cb208bbb5</title>
<path fill="none" stroke="black" d="M432.62,-144.94C452.83,-134.98 478.97,-122.09 500.64,-111.41"/>
<polygon fill="black" stroke="black" points="502.2,-114.55 509.62,-106.98 499.1,-108.27 502.2,-114.55"/>
</g>
<!-- START960df667d174bfaadf090666e0c2cc69 -->
<g id="node10" class="node">
<title>START960df667d174bfaadf090666e0c2cc69</title>
<ellipse fill="none" stroke="black" cx="499.05" cy="-450" rx="41.69" ry="18"/>
<text text-anchor="middle" x="499.05" y="-446.3" font-family="Times,serif" font-size="14.00">START</text>
</g>
<!-- START960df667d174bfaadf090666e0c2cc69&#45;&gt;Collecteinfos247180c821381881d9666effcce33fc3 -->
<g id="edge16" class="edge">
<title>START960df667d174bfaadf090666e0c2cc69&#45;&gt;Collecteinfos247180c821381881d9666effcce33fc3</title>
<path fill="none" stroke="black" d="M469.98,-436.97C450.49,-427.85 425.17,-413.85 407.05,-396 380.48,-369.85 373.96,-359.93 364.05,-324 359.79,-308.58 359.34,-303.29 364.05,-288 367.1,-278.06 372.73,-268.31 378.64,-259.93"/>
<polygon fill="black" stroke="black" points="381.58,-261.85 384.81,-251.76 376,-257.63 381.58,-261.85"/>
</g>
<!-- START960df667d174bfaadf090666e0c2cc69&#45;&gt;Demandeclient3b7f30a9759b12989eeebba9116d99f6 -->
<g id="edge10" class="edge">
<title>START960df667d174bfaadf090666e0c2cc69&#45;&gt;Demandeclient3b7f30a9759b12989eeebba9116d99f6</title>
<path fill="none" stroke="black" d="M499.05,-431.7C499.05,-423.98 499.05,-414.71 499.05,-406.11"/>
<polygon fill="black" stroke="black" points="502.55,-406.1 499.05,-396.1 495.55,-406.1 502.55,-406.1"/>
</g>
<!-- START960df667d174bfaadf090666e0c2cc69&#45;&gt;Vérif.solvalibilité8771e60385b8023496e5329cb208bbb5 -->
<g id="edge12" class="edge">
<title>START960df667d174bfaadf090666e0c2cc69&#45;&gt;Vérif.solvalibilité8771e60385b8023496e5329cb208bbb5</title>
<path fill="none" stroke="black" d="M532.58,-439.34C556.37,-431.07 587.73,-417.1 609.05,-396 640.41,-364.96 653.05,-351.13 653.05,-307 653.05,-307 653.05,-307 653.05,-233 653.05,-182.16 608.33,-138.65 575.66,-113.65"/>
<polygon fill="black" stroke="black" points="577.35,-110.54 567.23,-107.4 573.18,-116.17 577.35,-110.54"/>
</g>
</g>
</svg>
