<?xml version="1.0" encoding="UTF-8" standalone="no"?>
<!DOCTYPE svg PUBLIC "-//W3C//DTD SVG 1.1//EN"
 "http://www.w3.org/Graphics/SVG/1.1/DTD/svg11.dtd">
<!-- Generated by graphviz version 2.44.0 (20200408.0750)
 -->
<!-- Title: 7efda289b2e0 Pages: 1 -->
<svg width="346pt" height="568pt"
 viewBox="0.00 0.00 345.89 568.19" xmlns="http://www.w3.org/2000/svg" xmlns:xlink="http://www.w3.org/1999/xlink">
<g id="graph0" class="graph" transform="scale(1 1) rotate(0) translate(4 564.19)">
<title>7efda289b2e0</title>
<polygon fill="white" stroke="transparent" points="-4,4 -4,-564.19 341.89,-564.19 341.89,4 -4,4"/>
<!-- Stuffaftere4818259daf8ff259836621a995d05af -->
<g id="node1" class="node">
<title>Stuffaftere4818259daf8ff259836621a995d05af</title>
<ellipse fill="white" stroke="black" cx="58.49" cy="-126.99" rx="58.49" ry="18"/>
<text text-anchor="middle" x="58.49" y="-123.29" font-family="Times,serif" font-size="14.00">Stuff after</text>
</g>
<!-- ENDace30ee1e2a05c82c229c3e66f6f64c7 -->
<g id="node2" class="node">
<title>ENDace30ee1e2a05c82c229c3e66f6f64c7</title>
<ellipse fill="white" stroke="black" cx="147.49" cy="-36.5" rx="32.49" ry="32.49"/>
<ellipse fill="none" stroke="black" cx="147.49" cy="-36.5" rx="36.49" ry="36.49"/>
<text text-anchor="middle" x="147.49" y="-32.8" font-family="Times,serif" font-size="14.00">END</text>
</g>
<!-- Stuffaftere4818259daf8ff259836621a995d05af&#45;&gt;ENDace30ee1e2a05c82c229c3e66f6f64c7 -->
<g id="edge1" class="edge">
<title>Stuffaftere4818259daf8ff259836621a995d05af&#45;&gt;ENDace30ee1e2a05c82c229c3e66f6f64c7</title>
<path fill="none" stroke="black" d="M75.24,-109.35C86.37,-98.28 101.36,-83.38 114.8,-70.01"/>
<polygon fill="black" stroke="black" points="117.45,-72.31 122.07,-62.78 112.51,-67.35 117.45,-72.31"/>
</g>
<!-- Otherstuffbefore56e2ad048b6ab36070c18ffc68875a40 -->
<g id="node3" class="node">
<title>Otherstuffbefore56e2ad048b6ab36070c18ffc68875a40</title>
<ellipse fill="white" stroke="black" cx="127.49" cy="-342.99" rx="94.48" ry="18"/>
<text text-anchor="middle" x="127.49" y="-339.29" font-family="Times,serif" font-size="14.00">Other stuff before</text>
</g>
<!-- Ad4b08f8faeb6f5c16b27d3c870a8efe1 -->
<g id="node4" class="node">
<title>Ad4b08f8faeb6f5c16b27d3c870a8efe1</title>
<ellipse fill="white" stroke="black" cx="155.49" cy="-270.99" rx="27" ry="18"/>
<text text-anchor="middle" x="155.49" y="-267.29" font-family="Times,serif" font-size="14.00">A</text>
</g>
<!-- Otherstuffbefore56e2ad048b6ab36070c18ffc68875a40&#45;&gt;Ad4b08f8faeb6f5c16b27d3c870a8efe1 -->
<g id="edge2" class="edge">
<title>Otherstuffbefore56e2ad048b6ab36070c18ffc68875a40&#45;&gt;Ad4b08f8faeb6f5c16b27d3c870a8efe1</title>
<path fill="none" stroke="black" d="M134.42,-324.69C137.62,-316.69 141.49,-307.01 145.03,-298.15"/>
<polygon fill="black" stroke="black" points="148.38,-299.2 148.85,-288.62 141.88,-296.6 148.38,-299.2"/>
</g>
<!-- B50982db242b9a02dcc142487c55b6ab7 -->
<g id="node5" class="node">
<title>B50982db242b9a02dcc142487c55b6ab7</title>
<ellipse fill="white" stroke="black" cx="100.49" cy="-198.99" rx="27" ry="18"/>
<text text-anchor="middle" x="100.49" y="-195.29" font-family="Times,serif" font-size="14.00">B</text>
</g>
<!-- Otherstuffbefore56e2ad048b6ab36070c18ffc68875a40&#45;&gt;B50982db242b9a02dcc142487c55b6ab7 -->
<g id="edge5" class="edge">
<title>Otherstuffbefore56e2ad048b6ab36070c18ffc68875a40&#45;&gt;B50982db242b9a02dcc142487c55b6ab7</title>
<path fill="none" stroke="black" d="M124.24,-324.87C119.64,-300.66 111.18,-256.21 105.7,-227.39"/>
<polygon fill="black" stroke="black" points="109.07,-226.35 103.76,-217.18 102.19,-227.66 109.07,-226.35"/>
</g>
<!-- Ad4b08f8faeb6f5c16b27d3c870a8efe1&#45;&gt;Stuffaftere4818259daf8ff259836621a995d05af -->
<g id="edge11" class="edge">
<title>Ad4b08f8faeb6f5c16b27d3c870a8efe1&#45;&gt;Stuffaftere4818259daf8ff259836621a995d05af</title>
<path fill="none" stroke="black" d="M155.53,-252.8C154.78,-233.72 151.13,-202.76 136.49,-180.99 127.2,-167.18 112.98,-155.97 99.21,-147.48"/>
<polygon fill="black" stroke="black" points="100.69,-144.3 90.28,-142.3 97.17,-150.35 100.69,-144.3"/>
</g>
<!-- Ad4b08f8faeb6f5c16b27d3c870a8efe1&#45;&gt;B50982db242b9a02dcc142487c55b6ab7 -->
<g id="edge6" class="edge">
<title>Ad4b08f8faeb6f5c16b27d3c870a8efe1&#45;&gt;B50982db242b9a02dcc142487c55b6ab7</title>
<path fill="none" stroke="black" d="M139.43,-256.5C131.08,-247.47 121.2,-235.32 113.36,-224.61"/>
<polygon fill="black" stroke="black" points="116.19,-222.56 107.57,-216.41 110.47,-226.6 116.19,-222.56"/>
</g>
<!-- Differentstuffafter1708f762a83509bfc1caa96a1dde8670 -->
<g id="node6" class="node">
<title>Differentstuffafter1708f762a83509bfc1caa96a1dde8670</title>
<ellipse fill="white" stroke="black" cx="236.49" cy="-126.99" rx="101.28" ry="18"/>
<text text-anchor="middle" x="236.49" y="-123.29" font-family="Times,serif" font-size="14.00">Different stuff after</text>
</g>
<!-- Ad4b08f8faeb6f5c16b27d3c870a8efe1&#45;&gt;Differentstuffafter1708f762a83509bfc1caa96a1dde8670 -->
<g id="edge9" class="edge">
<title>Ad4b08f8faeb6f5c16b27d3c870a8efe1&#45;&gt;Differentstuffafter1708f762a83509bfc1caa96a1dde8670</title>
<path fill="none" stroke="black" d="M164.63,-253.98C178.52,-229.63 205.08,-183.06 221.74,-153.87"/>
<polygon fill="black" stroke="black" points="224.85,-155.47 226.77,-145.05 218.77,-152 224.85,-155.47"/>
</g>
<!-- B50982db242b9a02dcc142487c55b6ab7&#45;&gt;Stuffaftere4818259daf8ff259836621a995d05af -->
<g id="edge12" class="edge">
<title>B50982db242b9a02dcc142487c55b6ab7&#45;&gt;Stuffaftere4818259daf8ff259836621a995d05af</title>
<path fill="none" stroke="black" d="M90.96,-182.11C85.9,-173.67 79.56,-163.1 73.82,-153.54"/>
<polygon fill="black" stroke="black" points="76.72,-151.57 68.57,-144.79 70.72,-155.17 76.72,-151.57"/>
</g>
<!-- B50982db242b9a02dcc142487c55b6ab7&#45;&gt;Ad4b08f8faeb6f5c16b27d3c870a8efe1 -->
<g id="edge8" class="edge">
<title>B50982db242b9a02dcc142487c55b6ab7&#45;&gt;Ad4b08f8faeb6f5c16b27d3c870a8efe1</title>
<path fill="none" stroke="black" d="M116.7,-213.64C124.91,-222.53 134.57,-234.4 142.32,-244.95"/>
<polygon fill="black" stroke="black" points="139.67,-247.26 148.3,-253.41 145.38,-243.22 139.67,-247.26"/>
</g>
<!-- B50982db242b9a02dcc142487c55b6ab7&#45;&gt;Differentstuffafter1708f762a83509bfc1caa96a1dde8670 -->
<g id="edge3" class="edge">
<title>B50982db242b9a02dcc142487c55b6ab7&#45;&gt;Differentstuffafter1708f762a83509bfc1caa96a1dde8670</title>
<path fill="none" stroke="black" d="M121.15,-187.36C140.92,-177.19 171.28,-161.56 195.89,-148.89"/>
<polygon fill="black" stroke="black" points="197.72,-151.89 205.01,-144.2 194.52,-145.66 197.72,-151.89"/>
</g>
<!-- Differentstuffafter1708f762a83509bfc1caa96a1dde8670&#45;&gt;ENDace30ee1e2a05c82c229c3e66f6f64c7 -->
<g id="edge10" class="edge">
<title>Differentstuffafter1708f762a83509bfc1caa96a1dde8670&#45;&gt;ENDace30ee1e2a05c82c229c3e66f6f64c7</title>
<path fill="none" stroke="black" d="M219.33,-108.93C208.25,-97.91 193.48,-83.22 180.21,-70.03"/>
<polygon fill="black" stroke="black" points="182.59,-67.46 173.03,-62.89 177.65,-72.42 182.59,-67.46"/>
</g>
<!-- Stuffbefored323bf0350e84b3ed39eda6135205f4a -->
<g id="node7" class="node">
<title>Stuffbefored323bf0350e84b3ed39eda6135205f4a</title>
<ellipse fill="white" stroke="black" cx="127.49" cy="-414.99" rx="65.79" ry="18"/>
<text text-anchor="middle" x="127.49" y="-411.29" font-family="Times,serif" font-size="14.00">Stuff before</text>
</g>
<!-- Stuffbefored323bf0350e84b3ed39eda6135205f4a&#45;&gt;Otherstuffbefore56e2ad048b6ab36070c18ffc68875a40 -->
<g id="edge4" class="edge">
<title>Stuffbefored323bf0350e84b3ed39eda6135205f4a&#45;&gt;Otherstuffbefore56e2ad048b6ab36070c18ffc68875a40</title>
<path fill="none" stroke="black" d="M127.49,-396.69C127.49,-388.98 127.49,-379.71 127.49,-371.11"/>
<polygon fill="black" stroke="black" points="130.99,-371.1 127.49,-361.1 123.99,-371.1 130.99,-371.1"/>
</g>
<!-- START960df667d174bfaadf090666e0c2cc69 -->
<g id="node8" class="node">
<title>START960df667d174bfaadf090666e0c2cc69</title>
<ellipse fill="white" stroke="black" cx="127.49" cy="-514.59" rx="41.68" ry="41.68"/>
<ellipse fill="none" stroke="black" cx="127.49" cy="-514.59" rx="45.69" ry="45.69"/>
<text text-anchor="middle" x="127.49" y="-510.89" font-family="Times,serif" font-size="14.00">START</text>
</g>
<!-- START960df667d174bfaadf090666e0c2cc69&#45;&gt;Stuffbefored323bf0350e84b3ed39eda6135205f4a -->
<g id="edge7" class="edge">
<title>START960df667d174bfaadf090666e0c2cc69&#45;&gt;Stuffbefored323bf0350e84b3ed39eda6135205f4a</title>
<path fill="none" stroke="black" d="M127.49,-468.79C127.49,-460.11 127.49,-451.26 127.49,-443.35"/>
<polygon fill="black" stroke="black" points="130.99,-443.24 127.49,-433.24 123.99,-443.24 130.99,-443.24"/>
</g>
</g>
</svg>
