<?xml version="1.0" encoding="UTF-8" standalone="no"?>
<!DOCTYPE svg PUBLIC "-//W3C//DTD SVG 1.1//EN"
 "http://www.w3.org/Graphics/SVG/1.1/DTD/svg11.dtd">
<!-- Generated by graphviz version 2.44.0 (20200408.0750)
 -->
<!-- Title: 7f72ddf605e0 Pages: 1 -->
<svg width="450pt" height="476pt"
 viewBox="0.00 0.00 449.73 476.00" xmlns="http://www.w3.org/2000/svg" xmlns:xlink="http://www.w3.org/1999/xlink">
<g id="graph0" class="graph" transform="scale(1 1) rotate(0) translate(4 472)">
<title>7f72ddf605e0</title>
<polygon fill="white" stroke="transparent" points="-4,4 -4,-472 445.73,-472 445.73,4 -4,4"/>
<!-- Saisieetenregistrementcb0b95ca9bb16c31bd634536eee167142 -->
<g id="node1" class="node">
<title>Saisieetenregistrementcb0b95ca9bb16c31bd634536eee167142</title>
<ellipse fill="none" stroke="black" cx="226.89" cy="-306" rx="126.18" ry="18"/>
<text text-anchor="middle" x="226.89" y="-302.3" font-family="Times,serif" font-size="14.00">Saisie et enregistrement</text>
</g>
<!-- Collecteinfos247180c821381881d9666effcce33fc33 -->
<g id="node2" class="node">
<title>Collecteinfos247180c821381881d9666effcce33fc33</title>
<ellipse fill="none" stroke="black" cx="226.89" cy="-234" rx="73.39" ry="18"/>
<text text-anchor="middle" x="226.89" y="-230.3" font-family="Times,serif" font-size="14.00">Collecte infos</text>
</g>
<!-- Saisieetenregistrementcb0b95ca9bb16c31bd634536eee167142&#45;&gt;Collecteinfos247180c821381881d9666effcce33fc33 -->
<g id="edge1" class="edge">
<title>Saisieetenregistrementcb0b95ca9bb16c31bd634536eee167142&#45;&gt;Collecteinfos247180c821381881d9666effcce33fc33</title>
<path fill="none" stroke="black" d="M226.89,-287.7C226.89,-279.98 226.89,-270.71 226.89,-262.11"/>
<polygon fill="black" stroke="black" points="230.39,-262.1 226.89,-252.1 223.39,-262.1 230.39,-262.1"/>
</g>
<!-- Collecteinfos247180c821381881d9666effcce33fc33&#45;&gt;Collecteinfos247180c821381881d9666effcce33fc33 -->
<g id="edge14" class="edge">
<title>Collecteinfos247180c821381881d9666effcce33fc33&#45;&gt;Collecteinfos247180c821381881d9666effcce33fc33</title>
<path fill="none" stroke="black" d="M276.74,-247.29C299.05,-248.55 318.34,-244.12 318.34,-234 318.34,-225.46 304.6,-220.97 286.92,-220.53"/>
<polygon fill="black" stroke="black" points="286.68,-217.04 276.74,-220.71 286.8,-224.04 286.68,-217.04"/>
</g>
<!-- Contrôledesinfosb77355e012bafef455c42a10531161854 -->
<g id="node3" class="node">
<title>Contrôledesinfosb77355e012bafef455c42a10531161854</title>
<ellipse fill="none" stroke="black" cx="94.89" cy="-162" rx="94.78" ry="18"/>
<text text-anchor="middle" x="94.89" y="-158.3" font-family="Times,serif" font-size="14.00">Contrôle des infos</text>
</g>
<!-- Collecteinfos247180c821381881d9666effcce33fc33&#45;&gt;Contrôledesinfosb77355e012bafef455c42a10531161854 -->
<g id="edge12" class="edge">
<title>Collecteinfos247180c821381881d9666effcce33fc33&#45;&gt;Contrôledesinfosb77355e012bafef455c42a10531161854</title>
<path fill="none" stroke="black" d="M192.92,-217.98C173.27,-208.2 148.72,-195.29 129.04,-184.44"/>
<polygon fill="black" stroke="black" points="130.54,-181.27 120.1,-179.46 127.14,-187.38 130.54,-181.27"/>
</g>
<!-- Contrôlecréditb98d9ff7f1901e0ea125c186d9035d8f9 -->
<g id="node8" class="node">
<title>Contrôlecréditb98d9ff7f1901e0ea125c186d9035d8f9</title>
<ellipse fill="none" stroke="black" cx="344.89" cy="-162" rx="81.49" ry="18"/>
<text text-anchor="middle" x="344.89" y="-158.3" font-family="Times,serif" font-size="14.00">Contrôle crédit</text>
</g>
<!-- Collecteinfos247180c821381881d9666effcce33fc33&#45;&gt;Contrôlecréditb98d9ff7f1901e0ea125c186d9035d8f9 -->
<g id="edge11" class="edge">
<title>Collecteinfos247180c821381881d9666effcce33fc33&#45;&gt;Contrôlecréditb98d9ff7f1901e0ea125c186d9035d8f9</title>
<path fill="none" stroke="black" d="M253.67,-217.12C270,-207.43 291.08,-194.92 308.86,-184.38"/>
<polygon fill="black" stroke="black" points="311,-187.18 317.81,-179.06 307.43,-181.16 311,-187.18"/>
</g>
<!-- Contrôledesinfosb77355e012bafef455c42a10531161854&#45;&gt;Collecteinfos247180c821381881d9666effcce33fc33 -->
<g id="edge2" class="edge">
<title>Contrôledesinfosb77355e012bafef455c42a10531161854&#45;&gt;Collecteinfos247180c821381881d9666effcce33fc33</title>
<path fill="none" stroke="black" d="M130.32,-178.74C150.01,-188.58 174.28,-201.36 193.61,-212.04"/>
<polygon fill="black" stroke="black" points="191.95,-215.12 202.39,-216.94 195.36,-209.01 191.95,-215.12"/>
</g>
<!-- Vérif.solvalibilité8771e60385b8023496e5329cb208bbb57 -->
<g id="node4" class="node">
<title>Vérif.solvalibilité8771e60385b8023496e5329cb208bbb57</title>
<ellipse fill="none" stroke="black" cx="116.89" cy="-90" rx="91.78" ry="18"/>
<text text-anchor="middle" x="116.89" y="-86.3" font-family="Times,serif" font-size="14.00">Vérif. solvalibilité</text>
</g>
<!-- Contrôledesinfosb77355e012bafef455c42a10531161854&#45;&gt;Vérif.solvalibilité8771e60385b8023496e5329cb208bbb57 -->
<g id="edge3" class="edge">
<title>Contrôledesinfosb77355e012bafef455c42a10531161854&#45;&gt;Vérif.solvalibilité8771e60385b8023496e5329cb208bbb57</title>
<path fill="none" stroke="black" d="M94.41,-143.7C96.08,-135.81 98.85,-126.3 101.98,-117.55"/>
<polygon fill="black" stroke="black" points="105.29,-118.69 105.62,-108.1 98.75,-116.17 105.29,-118.69"/>
</g>
<!-- Contrôledesinfosb77355e012bafef455c42a10531161854&#45;&gt;Vérif.solvalibilité8771e60385b8023496e5329cb208bbb57 -->
<g id="edge8" class="edge">
<title>Contrôledesinfosb77355e012bafef455c42a10531161854&#45;&gt;Vérif.solvalibilité8771e60385b8023496e5329cb208bbb57</title>
<path fill="none" stroke="black" d="M106.1,-144.05C109.37,-136.26 112.58,-126.82 114.98,-118.08"/>
<polygon fill="black" stroke="black" points="118.4,-118.82 117.38,-108.28 111.6,-117.16 118.4,-118.82"/>
</g>
<!-- Vérif.solvalibilité8771e60385b8023496e5329cb208bbb57&#45;&gt;Collecteinfos247180c821381881d9666effcce33fc33 -->
<g id="edge4" class="edge">
<title>Vérif.solvalibilité8771e60385b8023496e5329cb208bbb57&#45;&gt;Collecteinfos247180c821381881d9666effcce33fc33</title>
<path fill="none" stroke="black" d="M144.79,-107.18C160.02,-116.01 177.98,-128.36 189.89,-144 203.72,-162.16 210.81,-187.29 215.89,-206.22"/>
<polygon fill="black" stroke="black" points="212.55,-207.27 218.53,-216.01 219.3,-205.44 212.55,-207.27"/>
</g>
<!-- Vérif.solvalibilité8771e60385b8023496e5329cb208bbb57&#45;&gt;Collecteinfos247180c821381881d9666effcce33fc33 -->
<g id="edge7" class="edge">
<title>Vérif.solvalibilité8771e60385b8023496e5329cb208bbb57&#45;&gt;Collecteinfos247180c821381881d9666effcce33fc33</title>
<path fill="none" stroke="black" d="M158.93,-106.06C176.47,-114.95 195.46,-127.68 207.89,-144 221.66,-162.07 228.74,-187.06 230.86,-205.95"/>
<polygon fill="black" stroke="black" points="227.37,-206.27 231.54,-216.01 234.35,-205.8 227.37,-206.27"/>
</g>
<!-- Examenexigences4dd9712baf170e138e74a0b0893d29ee10 -->
<g id="node5" class="node">
<title>Examenexigences4dd9712baf170e138e74a0b0893d29ee10</title>
<ellipse fill="none" stroke="black" cx="344.89" cy="-90" rx="96.68" ry="18"/>
<text text-anchor="middle" x="344.89" y="-86.3" font-family="Times,serif" font-size="14.00">Examen exigences</text>
</g>
<!-- ENDace30ee1e2a05c82c229c3e66f6f64c710 -->
<g id="node6" class="node">
<title>ENDace30ee1e2a05c82c229c3e66f6f64c710</title>
<ellipse fill="none" stroke="black" cx="344.89" cy="-18" rx="32.49" ry="18"/>
<text text-anchor="middle" x="344.89" y="-14.3" font-family="Times,serif" font-size="14.00">END</text>
</g>
<!-- Examenexigences4dd9712baf170e138e74a0b0893d29ee10&#45;&gt;ENDace30ee1e2a05c82c229c3e66f6f64c710 -->
<g id="edge5" class="edge">
<title>Examenexigences4dd9712baf170e138e74a0b0893d29ee10&#45;&gt;ENDace30ee1e2a05c82c229c3e66f6f64c710</title>
<path fill="none" stroke="black" d="M344.89,-71.7C344.89,-63.98 344.89,-54.71 344.89,-46.11"/>
<polygon fill="black" stroke="black" points="348.39,-46.1 344.89,-36.1 341.39,-46.1 348.39,-46.1"/>
</g>
<!-- Demandeclient3b7f30a9759b12989eeebba9116d99f60 -->
<g id="node7" class="node">
<title>Demandeclient3b7f30a9759b12989eeebba9116d99f60</title>
<ellipse fill="none" stroke="black" cx="226.89" cy="-378" rx="83.39" ry="18"/>
<text text-anchor="middle" x="226.89" y="-374.3" font-family="Times,serif" font-size="14.00">Demande client</text>
</g>
<!-- Demandeclient3b7f30a9759b12989eeebba9116d99f60&#45;&gt;Saisieetenregistrementcb0b95ca9bb16c31bd634536eee167142 -->
<g id="edge13" class="edge">
<title>Demandeclient3b7f30a9759b12989eeebba9116d99f60&#45;&gt;Saisieetenregistrementcb0b95ca9bb16c31bd634536eee167142</title>
<path fill="none" stroke="black" d="M226.89,-359.7C226.89,-351.98 226.89,-342.71 226.89,-334.11"/>
<polygon fill="black" stroke="black" points="230.39,-334.1 226.89,-324.1 223.39,-334.1 230.39,-334.1"/>
</g>
<!-- Demandeclient3b7f30a9759b12989eeebba9116d99f60&#45;&gt;Demandeclient3b7f30a9759b12989eeebba9116d99f60 -->
<g id="edge6" class="edge">
<title>Demandeclient3b7f30a9759b12989eeebba9116d99f60&#45;&gt;Demandeclient3b7f30a9759b12989eeebba9116d99f60</title>
<path fill="none" stroke="black" d="M282.83,-391.33C307.18,-392.46 328.08,-388.02 328.08,-378 328.08,-369.39 312.65,-364.9 292.85,-364.53"/>
<polygon fill="black" stroke="black" points="292.78,-361.03 282.83,-364.67 292.88,-368.03 292.78,-361.03"/>
</g>
<!-- Contrôlecréditb98d9ff7f1901e0ea125c186d9035d8f9&#45;&gt;Examenexigences4dd9712baf170e138e74a0b0893d29ee10 -->
<g id="edge9" class="edge">
<title>Contrôlecréditb98d9ff7f1901e0ea125c186d9035d8f9&#45;&gt;Examenexigences4dd9712baf170e138e74a0b0893d29ee10</title>
<path fill="none" stroke="black" d="M344.89,-143.7C344.89,-135.98 344.89,-126.71 344.89,-118.11"/>
<polygon fill="black" stroke="black" points="348.39,-118.1 344.89,-108.1 341.39,-118.1 348.39,-118.1"/>
</g>
<!-- START960df667d174bfaadf090666e0c2cc690 -->
<g id="node9" class="node">
<title>START960df667d174bfaadf090666e0c2cc690</title>
<ellipse fill="none" stroke="black" cx="226.89" cy="-450" rx="41.69" ry="18"/>
<text text-anchor="middle" x="226.89" y="-446.3" font-family="Times,serif" font-size="14.00">START</text>
</g>
<!-- START960df667d174bfaadf090666e0c2cc690&#45;&gt;Demandeclient3b7f30a9759b12989eeebba9116d99f60 -->
<g id="edge10" class="edge">
<title>START960df667d174bfaadf090666e0c2cc690&#45;&gt;Demandeclient3b7f30a9759b12989eeebba9116d99f60</title>
<path fill="none" stroke="black" d="M226.89,-431.7C226.89,-423.98 226.89,-414.71 226.89,-406.11"/>
<polygon fill="black" stroke="black" points="230.39,-406.1 226.89,-396.1 223.39,-406.1 230.39,-406.1"/>
</g>
</g>
</svg>
